#N canvas 353 23 1126 839 12;
#X obj 40 29 receive~ \$0feedback;
#X obj 30 1088 send~ \$0feedback;
#X obj 235 33 hsl 128 15 0 1 0 0 empty empty empty -2 -8 0 10 -262144
-1 -1 0 1;
#X obj 187 28 adc~;
#X obj 187 52 *~;
#X obj 216 208 bng 15 250 50 0 empty empty Trigger_rec&play 17 7 0
10 -262144 -1 -1;
#X obj 361 210 bng 15 250 50 0 empty empty clear_array 17 7 0 10 -262144
-1 -1;
#X obj 227 812 delwrite~ \$0vib 44000;
#X obj 227 837 osc~ 0.4;
#X obj 227 861 +~ 1;
#X obj 227 885 *~ 20;
#X obj 227 909 delread4~ \$0vib;
#X obj 273 942 hsl 128 15 0 1 0 0 empty empty Vibrato_volume -2 -8
0 10 -262144 -1 -1 0 1;
#X obj 230 961 *~;
#X obj 82 941 hsl 128 15 0 1 0 0 empty empty Dry_volume -2 -8 0 10
-262144 -1 -1 0 1;
#X obj 34 960 *~;
#X obj 261 1041 hsl 128 15 0 1 0 0 empty empty playback_volume -2 -8
0 10 -262144 -1 -1 0 1;
#X obj 208 1060 *~;
#X obj 206 1090 dac~;
#N canvas 0 22 450 278 (subpatch) 0;
#X array \$0array1 1 float 2;
#X coords 0 1 1 -1 200 140 1 0 0;
#X restore 457 152 graph;
#N canvas 0 23 450 278 (subpatch) 0;
#X array \$0array2 1 float 2;
#X coords 0 1 1 -1 200 140 1 0 0;
#X restore 456 312 graph;
#X obj 63 380 tabwrite~;
#X obj 178 349 bng 15 250 50 0 empty empty empty 17 7 0 10 -262144
-1 -1;
#X floatatom 393 612 10 0 0 1 arraysize - -;
#X obj 162 482 bng 15 250 50 0 empty empty empty 17 7 0 10 -262144
-1 -1;
#X obj 282 283 tgl 15 0 empty empty empty 17 7 0 10 -262144 -1 -1 0
1;
#X obj 282 307 sel 0 1;
#X obj 282 341 bng 15 250 50 0 empty empty empty 17 7 0 10 -262144
-1 -1;
#X obj 315 343 bng 15 250 50 0 empty empty empty 17 7 0 10 -262144
-1 -1;
#X obj 234 249 t b b;
#X obj 393 518 loadbang;
#X obj 395 738 send \$0array2;
#X msg 394 648 resize \$1;
#X obj 545 735 send \$0array1;
#X obj 545 557 f \$0;
#X floatatom 545 601 5 0 0 1 Instance_ID - -;
#X obj 176 386 symbol \$0array1;
#X obj 188 413 symbol \$0array2;
#X obj 97 319 symbol \$0array1;
#X obj 77 290 symbol \$0array2;
#X msg 67 464 set \$1;
#X msg 71 347 set \$1;
#X msg 557 693 const 0;
#X obj 56 812 tabread4~;
#X obj 85 769 line~;
#X text 300 508 speed;
#X obj 170 589 /;
#X obj 169 617 / 48000;
#X obj 172 670 * 1000;
#X obj 146 522 f;
#X obj 85 710 pack f f;
#X msg 193 731 0;
#X obj 141 553 t f f b;
#X obj 391 562 f 96000;
#X floatatom 260 513 5 0 0 0 - - -;
#X msg 254 465 1;
#X obj 256 442 loadbang;
#X connect 0 0 21 0;
#X connect 2 0 4 1;
#X connect 3 0 4 0;
#X connect 4 0 21 0;
#X connect 5 0 29 0;
#X connect 6 0 42 0;
#X connect 8 0 9 0;
#X connect 9 0 10 0;
#X connect 10 0 11 0;
#X connect 11 0 13 0;
#X connect 12 0 13 1;
#X connect 13 0 17 0;
#X connect 13 0 1 0;
#X connect 14 0 15 1;
#X connect 15 0 17 0;
#X connect 15 0 1 0;
#X connect 16 0 17 1;
#X connect 17 0 18 0;
#X connect 17 0 18 1;
#X connect 22 0 21 0;
#X connect 23 0 32 0;
#X connect 23 0 49 1;
#X connect 24 0 49 0;
#X connect 25 0 26 0;
#X connect 26 0 27 0;
#X connect 26 1 28 0;
#X connect 27 0 36 0;
#X connect 27 0 39 0;
#X connect 28 0 37 0;
#X connect 28 0 38 0;
#X connect 29 0 22 0;
#X connect 29 0 24 0;
#X connect 29 1 25 0;
#X connect 30 0 34 0;
#X connect 30 0 53 0;
#X connect 32 0 31 0;
#X connect 32 0 33 0;
#X connect 34 0 35 0;
#X connect 36 0 40 0;
#X connect 37 0 40 0;
#X connect 38 0 41 0;
#X connect 39 0 41 0;
#X connect 40 0 43 0;
#X connect 41 0 21 0;
#X connect 42 0 33 0;
#X connect 42 0 31 0;
#X connect 43 0 7 0;
#X connect 43 0 15 0;
#X connect 44 0 43 0;
#X connect 46 0 47 0;
#X connect 47 0 48 0;
#X connect 48 0 50 1;
#X connect 49 0 52 0;
#X connect 50 0 44 0;
#X connect 51 0 44 0;
#X connect 52 0 50 0;
#X connect 52 1 46 0;
#X connect 52 2 51 0;
#X connect 53 0 23 0;
#X connect 54 0 46 1;
#X connect 55 0 54 0;
#X connect 56 0 55 0;
