#N canvas 193 23 946 1035 12;
#X obj 40 29 receive~ \$0feedback;
#X obj 31 479 send~ \$0feedback;
#X obj 36 159 ISRmodule 96000;
#X obj 231 26 hsl 128 15 0 1 0 0 empty empty empty -2 -8 0 10 -262144
-1 -1 0 1;
#X obj 186 26 adc~;
#X obj 187 52 *~;
#X obj 123 111 bng 15 250 50 0 empty empty Trigger_rec&play 17 7 0
10 -262144 -1 -1;
#X obj 157 138 bng 15 250 50 0 empty empty clear_array 17 7 0 10 -262144
-1 -1;
#X obj 226 190 delwrite~ \$0vib 44000;
#X obj 229 221 osc~ 0.4;
#X obj 229 245 +~ 1;
#X obj 229 269 *~ 20;
#X obj 228 300 delread4~ \$0vib;
#X obj 274 333 hsl 128 15 0 1 0 0 empty empty Vibrato_volume -2 -8
0 10 -262144 -1 -1 18700 1;
#X obj 231 352 *~;
#X obj 83 332 hsl 128 15 0 1 0 0 empty empty Dry_volume -2 -8 0 10
-262144 -1 -1 14100 1;
#X obj 35 351 *~;
#X obj 262 432 hsl 128 15 0 1 0 0 empty empty playback_volume -2 -8
0 10 -262144 -1 -1 21700 1;
#X obj 209 451 *~;
#X obj 207 481 dac~;
#X connect 0 0 2 0;
#X connect 2 0 8 0;
#X connect 2 0 16 0;
#X connect 3 0 5 1;
#X connect 4 0 5 0;
#X connect 5 0 2 0;
#X connect 6 0 2 1;
#X connect 7 0 2 2;
#X connect 9 0 10 0;
#X connect 10 0 11 0;
#X connect 11 0 12 0;
#X connect 12 0 14 0;
#X connect 13 0 14 1;
#X connect 14 0 18 0;
#X connect 14 0 1 0;
#X connect 15 0 16 1;
#X connect 16 0 18 0;
#X connect 16 0 1 0;
#X connect 17 0 18 1;
#X connect 18 0 19 0;
#X connect 18 0 19 1;
