#N canvas 215 23 1321 1035 16;
#N canvas 0 22 450 278 (subpatch) 0;
#X array \$0array1 96000 float 2;
#X coords 0 1 96000 -1 200 140 1 0 0;
#X restore 421 19 graph;
#N canvas 0 23 450 278 (subpatch) 0;
#X array \$0array2 96000 float 2;
#X coords 0 1 96000 -1 200 140 1 0 0;
#X restore 420 179 graph;
#X obj 27 247 tabwrite~;
#X obj 142 216 bng 15 250 50 0 empty empty empty 17 7 0 10 -262144
-1 -1;
#X floatatom 288 393 10 0 0 0 - - -;
#X text 287 373 Cmd+3;
#X obj 31 368 tabplay~;
#X obj 126 349 bng 15 250 50 0 empty empty empty 17 7 0 10 -262144
-1 -1;
#X obj 201 91 bng 15 250 50 0 empty empty empty 17 7 0 10 -262144 -1
-1;
#X text 195 66 trigger rec&play;
#X obj 246 150 tgl 15 0 empty empty empty 17 7 0 10 -262144 -1 -1 1
1;
#X obj 246 174 sel 0 1;
#X obj 246 208 bng 15 250 50 0 empty empty empty 17 7 0 10 -262144
-1 -1;
#X obj 279 210 bng 15 250 50 0 empty empty empty 17 7 0 10 -262144
-1 -1;
#X obj 198 116 t b b;
#X obj 28 34 inlet~;
#X obj 28 455 outlet~;
#X obj 288 299 loadbang;
#X obj 286 343 f \$1;
#X obj 290 519 send \$0array2;
#X msg 289 429 resize \$1;
#X obj 440 516 send \$0array1;
#X obj 440 338 f \$0;
#X floatatom 440 382 5 0 0 1 Instance_ID - -;
#X obj 140 253 symbol \$0array1;
#X obj 152 280 symbol \$0array2;
#X obj 61 186 symbol \$0array1;
#X obj 41 157 symbol \$0array2;
#X msg 31 331 set \$1;
#X msg 35 214 set \$1;
#X obj 197 33 inlet;
#X msg 452 474 const 0;
#X obj 447 428 inlet;
#X connect 3 0 2 0;
#X connect 4 0 20 0;
#X connect 6 0 16 0;
#X connect 7 0 6 0;
#X connect 8 0 14 0;
#X connect 10 0 11 0;
#X connect 11 0 12 0;
#X connect 11 1 13 0;
#X connect 12 0 24 0;
#X connect 12 0 27 0;
#X connect 13 0 25 0;
#X connect 13 0 26 0;
#X connect 14 0 3 0;
#X connect 14 0 7 0;
#X connect 14 1 10 0;
#X connect 15 0 2 0;
#X connect 17 0 18 0;
#X connect 17 0 22 0;
#X connect 18 0 4 0;
#X connect 20 0 19 0;
#X connect 20 0 21 0;
#X connect 22 0 23 0;
#X connect 24 0 28 0;
#X connect 25 0 28 0;
#X connect 26 0 29 0;
#X connect 27 0 29 0;
#X connect 28 0 6 0;
#X connect 29 0 2 0;
#X connect 30 0 8 0;
#X connect 31 0 21 0;
#X connect 31 0 19 0;
#X connect 32 0 31 0;
