#N canvas 664 239 987 745 16;
#N canvas 0 22 450 278 (subpatch) 0;
#X array \$0array1 96000 float 2;
#X coords 0 1 96000 -1 200 140 1 0 0;
#X restore 421 19 graph;
#N canvas 0 23 450 278 (subpatch) 0;
#X array \$0array2 96000 float 2;
#X coords 0 1 96000 -1 200 140 1 0 0;
#X restore 420 179 graph;
#X obj 27 247 tabwrite~;
#X obj 142 216 bng 15 250 50 0 empty empty empty 17 7 0 10 -262144
-1 -1;
#X floatatom 357 479 10 0 0 0 - - -;
#X text 356 459 Cmd+3;
#X obj 126 349 bng 15 250 50 0 empty empty empty 17 7 0 10 -262144
-1 -1;
#X obj 201 91 bng 15 250 50 0 empty empty empty 17 7 0 10 -262144 -1
-1;
#X text 195 66 trigger rec&play;
#X obj 246 150 tgl 15 0 empty empty empty 17 7 0 10 -262144 -1 -1 1
1;
#X obj 246 174 sel 0 1;
#X obj 246 208 bng 15 250 50 0 empty empty empty 17 7 0 10 -262144
-1 -1;
#X obj 279 210 bng 15 250 50 0 empty empty empty 17 7 0 10 -262144
-1 -1;
#X obj 198 116 t b b;
#X obj 28 34 inlet~;
#X obj 33 780 outlet~;
#X obj 357 385 loadbang;
#X obj 355 429 f \$1;
#X obj 359 605 send \$0array2;
#X msg 358 515 resize \$1;
#X obj 509 602 send \$0array1;
#X obj 509 424 f \$0;
#X floatatom 509 468 5 0 0 1 Instance_ID - -;
#X obj 140 253 symbol \$0array1;
#X obj 152 280 symbol \$0array2;
#X obj 61 186 symbol \$0array1;
#X obj 41 157 symbol \$0array2;
#X msg 31 331 set \$1;
#X msg 35 214 set \$1;
#X obj 197 33 inlet;
#X msg 521 560 const 0;
#X obj 516 514 inlet;
#X obj 33 710 tabread4~;
#X obj 49 636 line~;
#X obj 209 373 inlet;
#X text 261 359 speed;
#X obj 134 456 /;
#X obj 133 484 / 48000;
#X obj 136 537 * 1000;
#X obj 110 389 f;
#X obj 49 577 pack f f;
#X msg 157 598 0;
#X obj 105 420 t f f b;
#X connect 3 0 2 0;
#X connect 4 0 19 0;
#X connect 4 0 39 1;
#X connect 6 0 39 0;
#X connect 7 0 13 0;
#X connect 9 0 10 0;
#X connect 10 0 11 0;
#X connect 10 1 12 0;
#X connect 11 0 23 0;
#X connect 11 0 26 0;
#X connect 12 0 24 0;
#X connect 12 0 25 0;
#X connect 13 0 3 0;
#X connect 13 0 6 0;
#X connect 13 1 9 0;
#X connect 14 0 2 0;
#X connect 16 0 17 0;
#X connect 16 0 21 0;
#X connect 17 0 4 0;
#X connect 19 0 18 0;
#X connect 19 0 20 0;
#X connect 21 0 22 0;
#X connect 23 0 27 0;
#X connect 24 0 27 0;
#X connect 25 0 28 0;
#X connect 26 0 28 0;
#X connect 27 0 32 0;
#X connect 28 0 2 0;
#X connect 29 0 7 0;
#X connect 30 0 20 0;
#X connect 30 0 18 0;
#X connect 31 0 30 0;
#X connect 32 0 15 0;
#X connect 33 0 32 0;
#X connect 34 0 36 1;
#X connect 36 0 37 0;
#X connect 37 0 38 0;
#X connect 38 0 40 1;
#X connect 39 0 42 0;
#X connect 40 0 33 0;
#X connect 41 0 33 0;
#X connect 42 0 40 0;
#X connect 42 1 36 0;
#X connect 42 2 41 0;
